<?xml version="1.0" encoding="utf-8"?>
<!-- Generator: Adobe Illustrator 22.0.0, SVG Export Plug-In . SVG Version: 6.00 Build 0)  -->
<svg version="1.1" id="Layer_1" xmlns="http://www.w3.org/2000/svg" xmlns:xlink="http://www.w3.org/1999/xlink" x="0px" y="0px"
	 viewBox="0 0 224.5 50" style="enable-background:new 0 0 224.5 50;" xml:space="preserve">
<style type="text/css">
	.st0{fill:#FFFFFF;}
	.st1{font-family:'DreamOrphans-Regular';}
	.st2{font-size:47.5567px;}
	.st3{fill:#0FB9F4;}
	.st4{fill:#F50057;}
</style>
<g>
	<text transform="matrix(1 0 0 1 1.464844e-03 48.8945)" class="st0 st1 st2">TH  UGHTS</text>
</g>
<g>
	<g>
		<g>
			<g>
				<path class="st0" d="M90.8,36.8c-0.2,0-0.5-0.1-0.7-0.3l-2.1-2.1c-0.4-0.4-0.4-1,0-1.4c0.4-0.4,1-0.4,1.4,0l2.1,2.1
					c0.4,0.4,0.4,1,0,1.4C91.3,36.7,91.1,36.8,90.8,36.8z"/>
			</g>
		</g>
	</g>
	<g>
		<g>
			<g>
				<g>
					<path class="st0" d="M86.4,31.5c-0.9,0-1.3-1.2-0.5-1.8c0.3-0.2,0.7-0.2,1.1,0C87.7,30.2,87.3,31.5,86.4,31.5L86.4,31.5z"/>
				</g>
			</g>
		</g>
	</g>
</g>
<g>
	<g>
		<g>
			<path class="st3" d="M72.5,5.9c-0.5,0-1-0.4-1-1V2c0-0.5,0.4-1,1-1c0.5,0,1,0.4,1,1v2.9C73.5,5.4,73,5.9,72.5,5.9z"/>
		</g>
	</g>
	<g>
		<g>
			<g>
				<path class="st3" d="M60.1,11c-0.2,0-0.5-0.1-0.7-0.3l-2.1-2.1c-0.4-0.4-0.4-1,0-1.4c0.4-0.4,1-0.4,1.4,0l2.1,2.1
					c0.4,0.4,0.4,1,0,1.4C60.6,10.9,60.3,11,60.1,11z"/>
			</g>
		</g>
		<g>
			<g>
				<path class="st3" d="M84.9,11c-0.2,0-0.5-0.1-0.7-0.3c-0.4-0.4-0.4-1,0-1.4l2.1-2.1c0.4-0.4,1-0.4,1.4,0c0.4,0.4,0.4,1,0,1.4
					l-2.1,2.1C85.4,10.9,85.2,11,84.9,11z"/>
			</g>
		</g>
	</g>
	<g>
		<g>
			<path class="st3" d="M54.2,36.8c-0.2,0-0.5-0.1-0.7-0.3c-0.4-0.4-0.4-1,0-1.4l2.1-2.1c0.4-0.4,1-0.4,1.4,0c0.4,0.4,0.4,1,0,1.4
				l-2.1,2.1C54.6,36.7,54.4,36.8,54.2,36.8z"/>
		</g>
	</g>
	<g>
		<g>
			<path class="st3" d="M94,23.4h-2.9c-0.5,0-1-0.4-1-1s0.4-1,1-1H94c0.5,0,1,0.4,1,1S94.6,23.4,94,23.4z"/>
		</g>
		<g>
			<path class="st3" d="M53.9,23.4H51c-0.5,0-1-0.4-1-1s0.4-1,1-1h2.9c0.5,0,1,0.4,1,1S54.4,23.4,53.9,23.4z"/>
		</g>
	</g>
	<g>
		<g>
			<g>
				<path class="st3" d="M84.2,12c-3.1-3.1-7.1-4.8-11.5-4.9c-4.4-0.1-8.6,1.6-11.7,4.7c-3.2,3.1-4.9,7.2-5,11.6
					c0,2.9,0.7,5.8,2.1,8.3c1.4,2.4,3.3,4.5,5.7,6c1.5,0.9,2.4,2.5,2.4,4.3v3.7c0,0.5,0.4,1,1,1h1.4V49c0,0.5,0.4,1,1,1h5.9
					c0.5,0,1-0.4,1-1v-2.4h1.4c0.5,0,1-0.4,1-1V42c0-1.8,0.9-3.4,2.4-4.3c0.9-0.5,1.7-1.2,2.5-1.9c0.4-0.4,0.4-1,0.1-1.4
					c-0.4-0.4-1-0.4-1.4-0.1c-0.7,0.6-1.4,1.2-2.2,1.7c-1,0.6-1.8,1.4-2.3,2.4V25.2c0-0.8-0.2-1.7-0.7-2.4L73.3,17
					c-0.2-0.3-0.5-0.4-0.8-0.4c-0.3,0-0.6,0.2-0.8,0.4l-3.8,5.8c-0.5,0.7-0.7,1.5-0.7,2.4v13.2c-0.6-0.9-1.4-1.8-2.3-2.4
					c-4.3-2.7-7-7.5-6.9-12.6c0.1-3.9,1.6-7.5,4.4-10.2C65.2,10.4,68.8,9,72.7,9c7.9,0.1,14.3,6.7,14.3,14.6c0,0.7,0,1.4-0.1,2
					c-0.1,0.5,0.3,1,0.8,1.1c0.5,0.1,1-0.3,1.1-0.8c0.1-0.8,0.2-1.5,0.2-2.3C89,19.2,87.3,15.1,84.2,12L84.2,12z M69.5,23.8l0.7-1.1
					h4.5l0.7,1.1c0.2,0.4,0.4,0.8,0.4,1.3C75.6,25,75.3,25,75,25c-0.9,0-1.8,0.3-2.5,0.9C71.8,25.3,70.9,25,70,25
					c-0.3,0-0.6,0-0.9,0.1C69.1,24.7,69.3,24.2,69.5,23.8L69.5,23.8z M73.5,41V27.6c0.4-0.4,1-0.7,1.6-0.7c0.3,0,0.6,0.1,0.9,0.2V41
					H73.5z M69.1,27.1c0.3-0.1,0.6-0.2,0.9-0.2c0.6,0,1.2,0.2,1.6,0.7V41h-2.4V27.1z M74.5,48h-4v-1.4h4V48z M76.8,44.7h-8.7v-1.8
					h8.7V44.7z M72.5,19.2l1,1.6h-2L72.5,19.2z"/>
			</g>
		</g>
	</g>
</g>
<rect x="-13" y="12" class="st3" width="9" height="11"/>
<rect x="-13" y="25" class="st4" width="9" height="11"/>
</svg>
